<svg xmlns="http://www.w3.org/2000/svg" viewBox="0 0 64 64" fill="none">
  <circle cx="32" cy="32" r="30" fill="#1d221c" stroke="rgba(237,230,216,0.14)" stroke-width="1"/>

  <!-- laptop -->
  <rect x="16" y="22" width="32" height="20" rx="2" fill="none" stroke="#c79a4a" stroke-width="2.2"/>
  <rect x="20" y="26" width="24" height="12" rx="1" fill="#c79a4a" opacity="0.16"/>
  <path d="M12 44h40l-3 4H15l-3-4z" fill="none" stroke="#c79a4a" stroke-width="2.2" stroke-linejoin="round"/>

  <!-- circuit node accents -->
  <circle cx="24" cy="32" r="2.1" fill="#88a99b"/>
  <circle cx="40" cy="32" r="2.1" fill="#88a99b"/>
  <path d="M26.1 32h11.8" stroke="#88a99b" stroke-width="1.4"/>

  <!-- gear -->
  <g transform="translate(44,16)">
    <circle r="7.5" fill="#171b16" stroke="#88a99b" stroke-width="1.6"/>
    <circle r="2.6" fill="#88a99b"/>
    <g stroke="#88a99b" stroke-width="1.6">
      <line x1="0" y1="-9.5" x2="0" y2="-6.5"/>
      <line x1="0" y1="9.5" x2="0" y2="6.5"/>
      <line x1="-9.5" y1="0" x2="-6.5" y2="0"/>
      <line x1="9.5" y1="0" x2="6.5" y2="0"/>
      <line x1="-6.7" y1="-6.7" x2="-4.6" y2="-4.6"/>
      <line x1="6.7" y1="6.7" x2="4.6" y2="4.6"/>
      <line x1="-6.7" y1="6.7" x2="-4.6" y2="4.6"/>
      <line x1="6.7" y1="-6.7" x2="4.6" y2="-4.6"/>
    </g>
  </g>
</svg>
